<?xml version="1.0" encoding="UTF-8" standalone="no"?>
<!DOCTYPE svg PUBLIC "-//W3C//DTD SVG 1.1//EN" "http://www.w3.org/Graphics/SVG/1.1/DTD/svg11.dtd">
<svg width="100%" height="100%" viewBox="0 0 800 800" version="1.1" xmlns="http://www.w3.org/2000/svg" xmlns:xlink="http://www.w3.org/1999/xlink" xml:space="preserve" xmlns:serif="http://www.serif.com/" style="fill-rule:evenodd;clip-rule:evenodd;stroke-linejoin:round;stroke-miterlimit:2;">
    <path d="M415,24.019C405.718,18.66 394.282,18.66 385,24.019L81.891,199.019C72.609,204.378 66.891,214.282 66.891,225L66.891,575C66.891,585.718 72.609,595.622 81.891,600.981L385,775.981C394.282,781.34 405.718,781.34 415,775.981L718.109,600.981C727.391,595.622 733.109,585.718 733.109,575L733.109,225C733.109,214.282 727.391,204.378 718.109,199.019L415,24.019ZM415,84.019C405.718,78.66 394.282,78.66 385,84.019L133.853,229.019C124.571,234.378 118.853,244.282 118.853,255L118.853,545C118.853,555.718 124.571,565.622 133.853,570.981L385,715.981C394.282,721.34 405.718,721.34 415,715.981L666.147,570.981C675.429,565.622 681.147,555.718 681.147,545L681.147,255C681.147,244.282 675.429,234.378 666.147,229.019L415,84.019Z" style="fill:rgb(244,205,27);"/>
</svg>
